<?xml version="1.0" standalone="no"?>
<!DOCTYPE svg PUBLIC "-//W3C//DTD SVG 1.0//EN" "http://www.w3.org/TR/2001/REC-SVG-20010904/DTD/svg10.dtd">
<svg xmlns="http://www.w3.org/2000/svg" xmlns:xlink="http://www.w3.org/1999/xlink" id="body_1" width="208" height="40">

<g transform="matrix(0.52 0 0 0.5263158 0 0)">
    <path transform="matrix(1 0 0 0.9978306 0 0)"  d="M13.167 37.083L13.167 57.167L17.833 57.167L22.5 57.167L22.5 37.083L22.5 17L17.833 17L13.167 17L13.167 37.083zM37.333 37.083L37.333 57.167L41.999 57.167L46.664 57.167L46.707 45.919L46.75 34.672L47.892 37.961C 49.006 41.169 50.677 45.998 53.236 53.409C 53.931 55.421 54.5 57.09 54.5 57.117C 54.5 57.144 57.425 57.167 61 57.167L61 57.167L67.5 57.167L67.5 37.083L67.5 17L62.835 17L58.169 17L58.126 28.12L58.083 39.239L56.685 35.161C 55.916 32.918 55.188 30.858 55.066 30.583C 54.944 30.308 54.577 29.258 54.251 28.25C 53.924 27.242 53.585 26.267 53.497 26.083C 53.408 25.9 52.705 23.912 51.933 21.667C 51.162 19.421 50.478 17.452 50.414 17.292C 50.306 17.021 49.834 17 43.816 17L43.816 17L37.333 17L37.333 37.083zM79.167 21L79.167 25L83.583 25L88 25L88 41.083L88 57.167L92.667 57.167L97.333 57.167L97.333 41.083L97.333 25L101.667 25L106 25L106 21L106 17L92.583 17L79.167 17L79.167 21zM117.667 37.083L117.667 57.167L129.833 57.167L142 57.167L142 53.083L142 49L134.583 49L127.167 49L127.167 45L127.167 41L133.417 41L139.667 41L139.667 37L139.667 33L133.417 33L127.167 33L127.167 29L127.167 25L134.583 25L142 25L142 21L142 17L129.833 17L117.667 17L117.667 37.083zM155.874 37.042L155.917 57.083L168.125 57.126L180.333 57.169L180.333 53.084L180.333 49L172.833 49L165.333 49L165.333 33L165.333 17L160.583 17L155.832 17L155.874 37.042zM191.833 37.083L191.833 57.167L204.083 57.167L216.333 57.167L216.333 53.083L216.333 49L208.833 49L201.333 49L201.333 33L201.333 17L196.583 17L191.833 17L191.833 37.083zM227.833 37.083L227.833 57.167L232.583 57.167L237.333 57.167L237.333 37.083L237.333 17L232.583 17L227.833 17L227.833 37.083zM252.099 20.404L249.333 23.141L249.333 37.722L249.333 52.303L252.121 55.068L254.908 57.833L263.848 57.833L272.788 57.833L275.561 55.078L278.333 52.324L278.333 44.495L278.333 36.667L271.333 36.667L264.333 36.667L264.333 40.667L264.333 44.667L266.667 44.667L269 44.667L269 47.25L269 49.833L263.917 49.833L258.833 49.833L258.833 37.75L258.833 25.667L263.917 25.667L269 25.667L269 28.583L269 31.5L273.667 31.5L278.333 31.5L278.333 27.294L278.333 23.087L275.627 20.377L272.92 17.667L263.892 17.667L254.864 17.667L252.099 20.404zM292 37.75L292 57.833L304.167 57.833L316.333 57.833L316.333 53.833L316.333 49.833L308.917 49.833L301.5 49.833L301.5 45.75L301.5 41.667L307.75 41.667L314 41.667L314 37.667L314 33.667L307.75 33.667L301.5 33.667L301.5 29.667L301.5 25.667L308.833 25.667L316.167 25.667L316.167 21.667L316.167 17.667L304.083 17.667L292 17.667L292 37.75" stroke="none" fill="#FCFCFC" fill-rule="nonzero" />
    <path transform="matrix(1 0 0 0.9978306 0 0)"  d="M327.606 9.185C 327.261 9.678 327.262 9.716 327.69 11.553C 328.163 13.58 328.915 14.243 329.82 13.43C 330.052 13.222 330.226 13.329 331.302 14.347C 332.578 15.554 332.969 15.703 333.63 15.241C 334.358 14.731 334.141 14.047 332.84 12.757C 331.738 11.663 331.696 11.594 332.007 11.377C 332.998 10.682 332.239 9.628 330.455 9.22C 328.42 8.755 327.911 8.749 327.606 9.185M354.072 9.243C 353.693 9.822 353.894 10.635 354.47 10.854C 355.524 11.254 357.016 10.63 356.994 9.798C 356.969 8.817 354.641 8.376 354.072 9.243M358.771 9.18C 358.22 9.613 358.187 10.351 358.698 10.827C 359.204 11.298 360.817 11.312 361.237 10.848C 362.227 9.754 359.976 8.232 358.771 9.18M382.271 9.184C 380.389 9.685 379.783 10.45 380.648 11.233C 380.952 11.509 380.928 11.553 379.898 12.609C 378.681 13.856 378.454 14.716 379.204 15.241C 379.906 15.733 379.975 15.695 382.114 13.633C 382.606 13.16 382.666 13.142 382.918 13.394C 383.583 14.059 384.37 13.705 384.718 12.583C 385.852 8.933 385.427 8.343 382.271 9.184M350.598 9.289C 348.669 9.575 348.918 11.675 350.854 11.445C 352.239 11.281 352.811 10.311 352 9.5C 351.67 9.17 351.536 9.149 350.598 9.289M363.095 10.095C 362.692 10.498 362.757 11.443 363.208 11.734C 364.628 12.648 366.399 11.805 365.605 10.593C 365.165 9.922 363.583 9.608 363.095 10.095M346.042 10.582C 345.351 10.882 345.224 12.174 345.851 12.509C 346.657 12.941 348 12.312 348 11.503C 348 10.565 347.078 10.131 346.042 10.582M367.333 11.667C 366.644 12.356 367.043 13.235 368.281 13.752C 370.033 14.484 370.679 12.444 368.945 11.656C 368.056 11.253 367.745 11.255 367.333 11.667M342.333 12.049C 341.734 12.349 341.647 13.517 342.195 13.901C 342.726 14.273 343.116 14.233 343.591 13.758C 344.497 12.852 343.482 11.474 342.333 12.049M353.417 13.027C 348.805 13.613 344.748 15.265 341.167 18.016C 330.637 26.106 328.215 41.669 335.866 52.083C 339.194 56.613 343.455 59.745 348.658 61.485C 353.786 63.2 361.201 62.93 365.917 60.857C 377.903 55.588 384.041 42.627 380.294 30.5C 378.546 24.843 374.309 19.335 369.583 16.578C 369.125 16.31 368.525 15.958 368.25 15.794C 364.527 13.577 358.272 12.41 353.417 13.027M371.333 14C 370.713 14.62 370.895 15.234 371.899 15.916C 372.747 16.491 373.492 16.438 373.806 15.779C 374.399 14.535 372.305 13.029 371.333 14M351.508 15.819C 351.414 15.994 350.999 16.257 350.585 16.402C 350.172 16.548 349.515 16.779 349.125 16.916C 347.295 17.561 346.441 19.473 347.337 20.922C 348.201 22.321 350.338 22.299 352.688 20.867C 354.417 19.814 354.879 19.627 356.083 19.49C 358.112 19.26 359.434 18.522 360.447 17.05C 361.046 16.18 361.384 15.95 360.995 16.676C 360.802 17.037 360.847 18.189 361.094 19.208L361.094 19.208L361.206 19.667L360.144 19.673C 357.109 19.69 355.578 20.681 355.266 22.833C 355.13 23.766 355.095 23.817 354.125 24.477C 353.143 25.146 353.126 25.027 354.404 26.396L354.404 26.396L355.474 27.543L358.779 27.571C 362.296 27.6 362.708 27.674 363.871 28.484C 365.473 29.599 365.417 31.841 363.766 32.713C 362.551 33.356 357.167 33.019 357.167 32.3C 357.167 32.135 357.092 32 357 32C 356.905 32 356.833 32.494 356.833 33.149C 356.833 35.333 355.918 37.534 354.278 39.291C 351.885 41.857 351.475 43.833 353.337 43.833C 355.045 43.833 355.507 44.258 355.592 45.905C 355.62 46.461 355.797 47.261 355.985 47.683C 356.175 48.11 356.368 48.994 356.42 49.683C 356.701 53.36 358.164 56.262 359.788 56.362C 361.477 56.465 362.155 56.241 363.667 55.081C 366.007 53.285 367.039 51.671 367.246 49.481C 367.401 47.838 367.692 46.444 367.941 46.154C 368.065 46.009 368.167 45.828 368.167 45.752C 368.167 45.676 368.454 45.232 368.805 44.765C 371.668 40.957 371.877 39.754 369.795 39.077C 368.859 38.773 367.96 38.184 367.417 37.519C 366.479 36.372 366.409 35.675 367.329 36.642C 369.372 38.79 372.27 37.269 372.65 33.85L372.65 33.85L372.75 32.95L373.288 33.404C 373.584 33.653 374.066 34.307 374.359 34.856C 375.197 36.429 376.292 36.944 377.299 36.238C 377.762 35.914 378.5 34.491 378.5 33.922C 378.5 33.132 378.757 33.497 378.962 34.579C 379.216 35.918 379.229 39.67 378.984 40.862C 376.93 50.857 370.845 57.546 361.75 59.81C 359.667 60.329 359.667 60.329 358.73 59.522C 356.361 57.481 352.201 56.942 348.927 58.252C 348.357 58.48 347.763 58.667 347.608 58.667C 346.847 58.667 342.514 56.038 341.6 55.021C 341.106 54.471 341.296 49.628 341.859 48.417C 342.845 46.296 342.229 43.901 340.277 42.27C 337.937 40.314 337.834 40.108 337.833 37.38C 337.832 34.592 336.789 33.221 334.635 33.176C 333.845 33.16 333.994 32.084 335.193 29.151C 335.926 27.36 338.026 25.673 341.841 23.814C 344.246 22.642 345.113 21.323 344.974 19.048L344.974 19.048L344.917 18.12L345.917 17.564C 347.345 16.769 350.275 15.706 351.548 15.519C 351.62 15.509 351.602 15.643 351.508 15.819M374.942 16.805C 373.927 17.927 375.95 19.952 377.059 18.925C 377.603 18.421 377.609 18.212 377.098 17.52C 376.325 16.472 375.493 16.196 374.942 16.805M377.942 20.138C 376.951 21.234 378.96 23.54 380 22.5C 380.451 22.049 380.419 21.348 379.917 20.668C 379.24 19.749 378.479 19.545 377.942 20.138M330.755 22.329C 329.22 23.351 328.925 23.727 329.103 24.435C 329.306 25.245 330.141 25.379 331.067 24.75C 331.84 24.226 331.833 24.225 331.833 24.88C 331.833 25.958 333.106 26.661 333.8 25.967C 334.04 25.727 334.063 24.359 333.841 23.519C 333.753 23.188 333.639 22.709 333.587 22.454C 333.309 21.102 332.643 21.072 330.755 22.329M380.458 23.842C 380.032 24.097 380.078 25.153 380.547 25.85C 381.001 26.526 381.832 26.704 382.349 26.236C 383.367 25.314 381.645 23.134 380.458 23.842M345.583 25.323C 343.641 25.903 341.803 27.193 341.09 28.475C 338.964 32.297 339.384 35.566 342.424 38.847C 342.998 39.465 343.835 40.657 344.345 41.581C 344.843 42.482 345.475 43.615 345.75 44.1C 346.025 44.584 346.455 45.355 346.705 45.812C 347.485 47.237 347.806 47.17 348.8 45.376C 349.194 44.665 349.671 43.821 349.861 43.5C 350.051 43.179 350.39 42.579 350.614 42.167C 351.72 40.126 352.165 39.479 353.115 38.526C 358.793 32.831 353.21 23.043 345.583 25.323M329.683 26.434C 328.983 27.323 329.023 28.749 329.753 28.932C 330.771 29.188 331.5 28.419 331.5 27.089C 331.5 26.035 330.329 25.613 329.683 26.434M350.162 27.731C 351.033 28.17 352.5 29.544 352.5 29.921C 352.5 30.02 352.59 30.19 352.701 30.301C 354.004 31.604 353.28 35.397 351.388 37.172C 350.854 37.673 350.225 38.458 349.99 38.917C 349.756 39.375 349.443 39.938 349.294 40.167C 349.145 40.396 348.762 41.069 348.441 41.662C 347.779 42.888 347.635 42.996 347.366 42.463C 347.26 42.254 347.001 41.783 346.791 41.417C 346.58 41.05 346.112 40.225 345.751 39.583C 345.389 38.942 344.566 37.851 343.922 37.16C 339.346 32.252 344.294 24.775 350.162 27.731M382.534 27.853C 381.292 28.313 381.928 30.824 383.288 30.831C 384.119 30.835 384.441 30.237 384.162 29.206C 383.832 27.984 383.324 27.561 382.534 27.853M356.271 29.132C 356.04 29.506 356.669 30.9 357.196 31.182C 358.061 31.645 362.177 31.973 362.913 31.638C 363.826 31.222 363.549 29.983 362.417 29.417C 361.685 29.051 356.471 28.809 356.271 29.132M346.25 29.694C 343.294 31.227 343.752 35.125 346.991 35.998C 348.447 36.39 350.423 35.194 350.832 33.674C 351.58 30.892 348.723 28.411 346.25 29.694M328.706 30.341C 327.986 30.627 327.657 32.67 328.26 33.111C 329.115 33.736 329.978 33.138 330.106 31.833C 330.23 30.562 329.665 29.96 328.706 30.341M383.166 32.622C 382.459 33.521 383.043 35.169 384.067 35.164C 384.94 35.16 385.087 34.961 385.054 33.824C 385.007 32.213 383.994 31.569 383.166 32.622M327.706 35.042C 327.156 35.725 327.287 37.41 327.913 37.695C 328.852 38.123 329.476 37.559 329.526 36.239C 329.569 35.113 328.314 34.288 327.706 35.042M383.421 37.325C 382.627 38.86 383.995 40.702 385.058 39.529C 385.374 39.179 385.439 37.676 385.161 37.156C 384.864 36.6 383.739 36.71 383.421 37.325M327.792 39.513C 327.316 39.79 327.382 41.497 327.886 41.971C 328.771 42.803 329.667 42.245 329.667 40.862C 329.667 39.574 328.781 38.937 327.792 39.513M383.271 41.536C 382.649 42.089 382.484 43.484 382.981 43.981C 383.899 44.899 384.995 43.995 384.999 42.317C 385.001 41.434 383.93 40.95 383.271 41.536M328.5 44C 328.111 44.389 328.102 44.484 328.362 45.397C 328.744 46.739 329.818 47.121 330.526 46.167C 331.421 44.961 329.545 42.955 328.5 44M372.474 44.996C 369.973 45.751 367.238 50.098 368.049 52.029C 369.013 54.326 372.082 53.281 374.385 49.872C 376.434 46.839 375.369 44.121 372.474 44.996M382.319 45.773C 382.027 45.855 381.5 46.843 381.5 47.31C 381.5 48.249 382.928 48.637 383.489 47.849C 384.291 46.722 383.56 45.425 382.319 45.773M379.815 47.542C 379.166 48.086 379.137 48.24 379.341 50.03C 379.624 52.514 379.934 52.74 381.806 51.833C 382.374 51.558 382.896 51.333 382.966 51.333C 383.285 51.333 384.167 50.319 384.167 49.952C 384.167 49.091 383.186 48.689 382.25 49.167C 381.366 49.617 381.333 49.604 381.333 48.787C 381.333 47.596 380.533 46.939 379.815 47.542M330 48.333C 329.596 48.737 329.583 49.018 329.937 49.717C 330.534 50.896 331.388 51.206 332.022 50.474C 333.049 49.291 331.103 47.231 330 48.333M332.173 52.198C 331.719 52.685 331.752 53.117 332.305 53.917C 332.903 54.781 334.125 54.917 334.395 54.148C 334.881 52.766 333.101 51.203 332.173 52.198M335.333 55.459C 334.509 55.774 334.466 56.74 335.239 57.56C 336.043 58.413 336.862 58.399 337.322 57.527C 337.781 56.656 336.281 55.096 335.333 55.459M338.2 58.867C 337.786 59.28 337.966 60.102 338.589 60.649C 340.049 61.931 341.59 60.67 340.293 59.256C 339.716 58.627 338.64 58.427 338.2 58.867M379.333 60.216C 378.471 60.648 378.656 61.477 379.902 62.754C 380.857 63.733 380.96 63.898 380.745 64.112C 380.114 64.743 380.449 66 381.249 66C 381.456 66 381.903 66.116 382.242 66.257C 384.216 67.082 385.446 66.724 385.276 65.374C 384.878 62.196 384.267 61.292 383.056 62.086C 382.626 62.367 382.625 62.367 381.521 61.284C 380.294 60.081 379.944 59.91 379.333 60.216M331.272 61.335C 330.268 62.376 330.118 62.475 329.894 62.251C 329.134 61.491 328.153 62.091 327.85 63.5C 327.742 64.004 327.581 64.748 327.493 65.154C 327.179 66.597 327.963 66.988 330.005 66.408C 330.507 66.265 331.104 66.105 331.333 66.053C 332.269 65.837 332.664 64.855 332.059 64.249C 331.804 63.994 331.863 63.895 332.892 62.858C 334.093 61.647 334.309 60.998 333.695 60.442C 333.06 59.867 332.482 60.08 331.272 61.335M341.942 61.305C 341.179 62.148 342.185 63.5 343.575 63.5C 344.282 63.5 344.77 62.794 344.519 62.134C 344.2 61.295 342.459 60.734 341.942 61.305M367.942 62.138C 367.297 62.851 367.814 64 368.781 64C 369.255 64 369.833 63.387 369.833 62.885C 369.833 62 368.532 61.486 367.942 62.138M346.331 63.052C 345.603 63.413 345.737 65 346.496 65C 346.671 65 346.86 65.075 346.917 65.167C 347.064 65.405 348.049 65.373 348.397 65.118C 349.511 64.304 347.621 62.413 346.331 63.052M364.586 63.344C 363.541 63.711 363.264 64.085 363.513 64.798C 363.941 66.027 366.5 65.503 366.5 64.186C 366.5 63.272 365.741 62.938 364.586 63.344M350.557 64.191C 349.835 65.1 349.909 65.721 350.782 66.086C 352.567 66.832 354.009 65.664 352.826 64.431C 352.435 64.024 350.826 63.853 350.557 64.191M359.948 64.399C 358.24 64.929 358.777 66.615 360.606 66.463C 362.038 66.345 362.561 65.546 361.821 64.606C 361.44 64.121 360.999 64.073 359.948 64.399M354.765 65.03C 354.079 66.009 354.684 66.704 356.162 66.634C 357.488 66.572 357.968 66.058 357.494 65.208C 357.129 64.553 355.187 64.426 354.765 65.03" stroke="none" fill="#FCD42C" fill-rule="nonzero" />
</g>
</svg>