<?xml version="1.0" standalone="no"?>
<!DOCTYPE svg PUBLIC "-//W3C//DTD SVG 1.0//EN" "http://www.w3.org/TR/2001/REC-SVG-20010904/DTD/svg10.dtd">
<svg xmlns="http://www.w3.org/2000/svg" xmlns:xlink="http://www.w3.org/1999/xlink" id="body_1" width="216" height="41">

<g transform="matrix(0.5400001 0 0 0.5394737 0 0)">
    <path transform="matrix(1 0 0 0.9978306 0 0)"  d="M14.667 38L14.667 58L19.333 58L24 58L24 38L24 18L19.333 18L14.667 18L14.667 38zM39 38L39 58L43.582 58L48.164 58L48.207 46.666L48.25 35.331L52.167 46.664L56.083 57.997L62.625 57.998L69.167 58L69.167 38L69.167 18L64.501 18L59.836 18L59.793 29.195L59.75 40.39L58.935 37.987C 58.486 36.665 58.021 35.358 57.9 35.083C 57.78 34.808 57.388 33.721 57.029 32.667C 55.685 28.713 53.658 22.905 53.51 22.583C 53.426 22.4 53.08 21.387 52.74 20.333C 52.4 19.279 52.048 18.323 51.957 18.208C 51.831 18.048 50.314 18 45.396 18L45.396 18L39 18L39 38zM80.667 22L80.667 26L85.083 26L89.5 26L89.5 42L89.5 58L94.25 58L99 58L99 42L99 26L103.333 26L107.667 26L107.667 22L107.667 18L94.167 18L80.667 18L80.667 22zM119.333 38L119.333 58L131.5 58L143.667 58L143.667 54L143.667 50L136.25 50L128.833 50L128.833 46L128.833 42L135 42L141.167 42L141.167 38L141.167 34L135 34L128.833 34L128.833 30L128.833 26L136.167 26L143.5 26L143.5 22L143.5 18L131.417 18L119.333 18L119.333 38zM157.5 38L157.5 58L169.667 58L181.833 58L181.833 54L181.833 50L174.417 50L167 50L167 34L167 18L162.25 18L157.5 18L157.5 38zM193.5 38L193.5 58L205.667 58L217.833 58L217.833 54L217.833 50L210.333 50L202.833 50L202.833 34L202.833 18L198.167 18L193.5 18L193.5 38zM229.5 38L229.5 58L234.167 58L238.833 58L238.833 38L238.833 18L234.167 18L229.5 18L229.5 38" stroke="none" fill="#FCD42C" fill-rule="nonzero" />
    <path transform="matrix(1 0 0 0.9978306 0 0)"  d="M329.135 10.253C 328.889 10.793 329.429 13.698 329.883 14.276C 330.247 14.739 330.922 14.788 331.368 14.385C 331.664 14.117 331.735 14.16 332.885 15.302C 334.172 16.581 334.695 16.78 335.224 16.195C 335.811 15.546 335.584 14.839 334.418 13.687L334.418 13.687L333.342 12.625L333.671 12.206C 334.42 11.255 333.996 10.751 332.016 10.237C 329.963 9.703 329.384 9.707 329.135 10.253M355.673 10.156C 355.122 11.183 355.65 11.924 356.91 11.895C 358.329 11.862 359.04 10.874 358.195 10.109C 357.729 9.688 355.905 9.721 355.673 10.156M360.458 10.102C 359.213 10.759 360.092 12.227 361.676 12.134C 363.166 12.047 363.669 10.374 362.289 10.097C 361.215 9.881 360.877 9.882 360.458 10.102M384.083 10.127C 382.523 10.517 382.224 10.659 382.021 11.104C 381.825 11.534 381.997 12.107 382.4 12.37C 382.514 12.444 382.157 12.919 381.458 13.624C 380.189 14.904 380.019 15.48 380.719 16.138C 381.321 16.703 381.614 16.589 382.983 15.256C 384.18 14.091 384.274 14.033 384.465 14.34C 384.604 14.562 384.854 14.667 385.248 14.667C 386.015 14.667 386.24 14.297 386.691 12.292C 387.248 9.818 386.802 9.448 384.083 10.127M352.083 10.289C 350.981 10.448 350.501 11.947 351.419 12.364C 352.065 12.659 353.307 12.356 353.717 11.802C 354.254 11.079 353.648 10.072 352.75 10.194C 352.658 10.206 352.358 10.249 352.083 10.289M364.667 11.167C 363.981 11.853 364.295 12.571 365.439 12.931C 366.846 13.374 367.626 12.792 367.184 11.629C 366.898 10.877 365.257 10.576 364.667 11.167M347.833 11.452C 346.391 11.982 346.9 13.879 348.409 13.596C 348.972 13.49 349.667 12.839 349.667 12.417C 349.667 11.69 348.646 11.153 347.833 11.452M368.926 12.704C 368.385 13.477 368.775 14.263 369.95 14.768C 371.439 15.408 372.156 13.518 370.742 12.684C 369.958 12.221 369.259 12.229 368.926 12.704M343.772 13.179C 342.963 13.816 343.387 15.042 344.417 15.042C 345.574 15.042 345.917 13.568 344.886 13.025C 344.391 12.764 344.28 12.78 343.772 13.179M354.334 13.997C 353.831 14.076 353.156 14.218 352.834 14.313C 352.513 14.408 351.688 14.646 351 14.841C 345.298 16.461 339.367 20.876 336.905 25.333C 336.728 25.654 336.542 25.954 336.491 26C 336.44 26.046 336.049 26.796 335.623 27.667C 326.863 45.577 341.097 65.697 360.965 63.487C 361.855 63.388 362.996 63.193 363.5 63.054C 364.004 62.915 364.679 62.742 365 62.669C 370.213 61.486 377.108 56.107 379.532 51.333C 379.648 51.104 379.789 50.879 379.844 50.833C 379.899 50.788 380.191 50.225 380.492 49.583C 386.351 37.109 381.374 22.564 369.139 16.403C 367.45 15.552 366.988 15.39 363.417 14.395C 361.767 13.936 356.274 13.695 354.334 13.997M372.942 14.971C 372.476 15.487 372.59 16.236 373.208 16.706C 374.232 17.486 374.916 17.491 375.419 16.723C 376.115 15.661 373.8 14.024 372.942 14.971M353.167 16.657C 353.167 16.938 352.441 17.335 351.315 17.671C 349.834 18.114 348.749 19.048 348.623 19.989C 348.223 22.969 350.952 23.871 354.279 21.86C 356.196 20.701 356.748 20.478 358.131 20.307C 360.143 20.057 361.312 19.326 362.355 17.667C 362.835 16.905 363.019 16.905 362.583 17.667C 362.452 17.896 362.345 18.346 362.345 18.667C 362.345 18.987 362.452 19.438 362.583 19.667C 363.07 20.517 362.96 20.612 361.375 20.713C 358.407 20.902 357.138 21.68 356.924 23.443C 356.78 24.637 356.52 25.065 355.676 25.495C 354.765 25.96 354.706 26.142 355.315 26.619C 355.604 26.845 356.102 27.372 356.42 27.789L356.42 27.789L356.999 28.547L360.291 28.565C 364.026 28.586 364.694 28.722 365.679 29.66C 366.916 30.841 366.958 32.448 365.776 33.4L365.776 33.4L365.135 33.917L362.859 33.911C 360 33.904 358.992 33.754 358.878 33.32C 358.707 32.667 358.5 33.031 358.5 33.982C 358.5 36.093 357.342 38.765 355.684 40.48C 354.412 41.796 353.791 43.01 353.865 44.036L353.865 44.036L353.917 44.75L354.629 44.697C 356.17 44.581 357.053 45.216 357.094 46.467C 357.128 47.489 357.317 48.321 357.623 48.787C 357.764 49.002 357.928 49.858 358.006 50.789C 358.541 57.112 361.572 59.107 365.577 55.772C 368.15 53.63 368.71 52.524 369.082 48.846C 369.21 47.58 369.555 46.851 370.824 45.167C 373.443 41.693 373.418 40.849 370.667 39.74C 369.688 39.345 369.398 39.093 368.726 38.05C 367.931 36.816 368.034 36.643 368.978 37.627C 369.904 38.593 370.814 38.864 371.915 38.501C 372.979 38.15 374.423 35.74 374.306 34.512C 374.206 33.459 375.258 34.427 376.167 36.224C 377.218 38.302 379.989 37.452 380.003 35.048C 380.004 34.793 380.072 34.477 380.155 34.347C 380.668 33.537 380.766 41.491 380.267 43.417C 377.917 52.486 371.712 58.802 363.143 60.849C 361.345 61.278 361.31 61.273 360.177 60.412C 357.348 58.26 353.576 57.934 349.729 59.51C 348.933 59.837 345.121 57.824 343.292 56.112C 342.52 55.389 342.666 51.388 343.544 49.167C 344.476 46.81 343.881 45.025 341.462 42.922C 339.544 41.254 339.453 41.057 339.417 38.487C 339.376 35.516 338.648 34.533 336.155 34.082L336.155 34.082L335.559 33.974L335.937 32.612C 336.777 29.582 337.195 28.799 338.475 27.86C 340.859 26.109 342.234 25.283 343.917 24.591C 345.577 23.907 346.399 22.6 346.433 20.587L346.433 20.587L346.459 19.083L347.83 18.385C 349.605 17.482 350.719 17.059 352.333 16.676C 353.153 16.482 353.167 16.482 353.167 16.657M376.5 17.833C 376.018 18.316 376.087 18.744 376.769 19.5C 377.453 20.256 378.236 20.401 378.724 19.862C 379.694 18.79 377.523 16.81 376.5 17.833M253.706 21.377L251 24.087L251 38.728L251 53.369L253.74 56.101L256.481 58.833L265.45 58.833L274.42 58.833L277.21 56.04L280 53.246L280 45.457L280 37.667L272.917 37.667L265.833 37.667L265.833 41.667L265.833 45.667L268.167 45.667L270.5 45.667L270.5 48.167L270.5 50.667L265.5 50.667L260.5 50.667L260.5 38.667L260.5 26.667L265.5 26.667L270.5 26.667L270.5 29.5L270.5 32.333L275.25 32.333L280 32.333L280 28.21L280 24.087L277.294 21.377L274.587 18.667L265.5 18.667L256.413 18.667L253.706 21.377L329.135 10.253zM293.5 38.75L293.5 58.833L305.75 58.833L318 58.833L318 54.75L318 50.667L310.5 50.667L303 50.667L303 46.667L303 42.667L309.25 42.667L315.5 42.667L315.5 38.667L315.5 34.667L309.25 34.667L303 34.667L303 30.667L303 26.667L310.417 26.667L317.833 26.667L317.833 22.667L317.833 18.667L305.667 18.667L293.5 18.667L293.5 38.75zM379.644 21.003C 378.976 21.393 379.168 22.48 380.049 23.304C 380.924 24.121 382.261 23.375 381.851 22.298C 381.41 21.137 380.414 20.553 379.644 21.003M332.831 22.944C 332.328 23.28 331.879 23.605 331.833 23.665C 331.787 23.725 331.623 23.821 331.468 23.878C 330.936 24.074 330.606 24.789 330.774 25.38C 330.974 26.079 332.038 26.233 332.82 25.676C 333.456 25.224 333.443 25.216 333.544 26.104C 333.643 26.985 333.835 27.161 334.702 27.164C 335.507 27.167 335.731 26.775 335.588 25.61C 335.192 22.377 334.574 21.78 332.831 22.944M382.306 24.732C 381.277 25.242 381.985 27.5 383.174 27.5C 384.348 27.5 384.612 26.704 383.844 25.481C 383.315 24.639 382.9 24.437 382.306 24.732M347.045 26.255C 341.185 28.1 339.462 35.302 343.84 39.653C 344.704 40.511 345.099 41.131 348.048 46.25C 349.214 48.275 349.281 48.275 350.403 46.27C 350.686 45.765 351.321 44.654 351.815 43.801C 352.308 42.948 352.941 41.841 353.221 41.34C 353.501 40.84 354.155 40.014 354.675 39.505C 359.722 34.566 356.234 25.938 349.222 26.016C 348.413 26.026 347.433 26.133 347.045 26.255M331.347 27.319C 330.616 28.05 330.64 29.647 331.386 29.908C 332.45 30.28 333.583 28.594 332.987 27.526C 332.661 26.943 331.829 26.838 331.347 27.319M351.386 28.556C 355.246 30.349 356.033 35.156 352.963 38.186C 352.11 39.028 351.566 39.859 349.948 42.786L349.948 42.786L349.284 43.989L348.538 42.703C 348.128 41.995 347.558 40.972 347.271 40.428C 346.985 39.885 346.271 38.947 345.687 38.345C 341.021 33.541 345.512 25.828 351.386 28.556M384.053 28.836C 382.876 29.305 383.518 31.833 384.814 31.833C 385.711 31.833 386.046 31.022 385.645 29.817C 385.338 28.895 384.775 28.548 384.053 28.836M357.896 30.245C 357.844 30.379 357.908 30.81 358.039 31.203C 358.365 32.186 358.674 32.282 363.088 32.775C 365.528 33.047 365.806 30.841 363.413 30.201C 362.275 29.897 358.016 29.93 357.896 30.245M347.991 30.555C 345.418 31.733 345.195 35.415 347.626 36.601C 349.338 37.436 351.696 36.606 352.323 34.947C 353.326 32.292 350.486 29.413 347.991 30.555M330.333 31.29C 329.757 31.514 329.329 32.864 329.581 33.66C 329.74 34.159 330.437 34.4 331.022 34.157C 331.854 33.813 332.043 31.333 331.237 31.333C 331.122 31.333 330.927 31.302 330.805 31.263C 330.683 31.225 330.471 31.237 330.333 31.29M384.845 33.525C 384.031 34.284 384.618 36.167 385.669 36.167C 386.577 36.167 386.891 35.683 386.737 34.523C 386.569 33.253 385.654 32.771 384.845 33.525M329.259 36.204C 328.94 36.66 328.92 37.993 329.226 38.413C 329.877 39.303 331.167 38.518 331.167 37.232C 331.167 35.981 329.895 35.296 329.259 36.204M385.006 38.156C 384.179 39.7 385.543 41.624 386.667 40.5C 387.122 40.045 387.14 38.512 386.695 38.109C 386.262 37.717 385.225 37.746 385.006 38.156M329.235 40.75C 328.417 41.998 329.96 43.973 330.967 42.967C 331.296 42.637 331.221 40.934 330.862 40.609C 330.39 40.182 329.56 40.254 329.235 40.75M385.009 42.405C 383.89 43.024 384.16 45.333 385.352 45.333C 386.55 45.333 387.071 42.971 385.996 42.415C 385.43 42.122 385.517 42.123 385.009 42.405M330.109 44.971C 329.577 45.559 329.981 47.18 330.747 47.529C 332.104 48.147 332.798 46.266 331.695 44.958C 331.37 44.574 330.462 44.581 330.109 44.971M373.324 46.305C 369.359 48.827 368.151 54.167 371.546 54.167C 374.687 54.167 378.443 48.115 376.45 46.266C 375.764 45.63 374.357 45.648 373.324 46.305M383.71 46.921C 383.269 47.231 383.056 48.208 383.309 48.763C 383.611 49.426 384.731 49.343 385.168 48.625C 385.908 47.413 384.821 46.144 383.71 46.921M381.198 48.673C 380.593 49.237 380.77 52.581 381.433 53.083C 381.981 53.497 384.965 52.419 385.543 51.597C 386.247 50.597 385.146 49.649 383.867 50.154L383.867 50.154L383.04 50.479L382.959 49.628C 382.839 48.378 382.002 47.924 381.198 48.673M331.742 49.242C 330.902 50.082 331.671 51.833 332.88 51.833C 334.069 51.833 334.128 49.909 332.964 49.093C 332.455 48.737 332.219 48.766 331.742 49.242M333.759 53.204C 333.1 54.146 334.04 55.748 335.188 55.637C 335.954 55.563 336.316 54.929 336.011 54.194C 335.481 52.915 334.32 52.404 333.759 53.204M336.708 56.587C 335.77 57.251 336.718 59.167 337.985 59.167C 339.015 59.167 339.298 57.979 338.476 57.106C 337.804 56.392 337.225 56.222 336.708 56.587M339.84 59.865C 339.342 60.399 339.421 60.855 340.132 61.55C 340.841 62.241 341.603 62.372 342.036 61.875C 343.049 60.712 340.891 58.736 339.84 59.865M380.88 61.166C 379.948 61.551 380.178 62.435 381.568 63.806C 382.622 64.846 382.633 64.867 382.319 65.181C 381.515 65.985 382.055 66.791 383.688 67.224C 386.771 68.04 387.284 67.673 386.698 65.071C 386.224 62.968 385.291 62.13 384.492 63.093C 384.304 63.319 384.14 63.216 383.18 62.27C 382.051 61.156 381.522 60.902 380.88 61.166M332.895 62.33C 331.73 63.476 331.708 63.489 331.414 63.163C 330.528 62.184 329.781 62.908 329.303 65.211C 328.76 67.821 329.057 68.042 332.066 67.268C 333.957 66.782 334.541 66.041 333.661 65.244C 333.323 64.939 333.327 64.931 334.438 63.811C 335.606 62.635 335.837 62.024 335.341 61.426C 334.853 60.838 334.143 61.101 332.895 62.33M343.649 62.214C 342.895 62.789 343.125 63.588 344.211 64.164C 345.401 64.795 346.388 64.239 346.102 63.098C 345.912 62.342 344.263 61.747 343.649 62.214M369.51 63.072C 369.147 63.509 369.362 64.542 369.875 64.828C 370.817 65.353 371.72 64.201 371.171 63.174C 370.951 62.764 369.823 62.694 369.51 63.072M348 63.947C 347.328 64.192 347.103 65.247 347.625 65.704C 348.141 66.156 349.115 66.416 349.623 66.237C 350.288 66.003 350.32 64.531 349.667 64.228C 349.111 63.97 348.309 63.835 348 63.947M366.155 64.259C 364.364 64.808 364.742 66.701 366.588 66.425C 367.841 66.237 368.505 65.261 367.875 64.533C 367.465 64.059 367.034 63.99 366.155 64.259M352.095 65.262C 351.115 66.242 352.156 67.497 353.788 67.302C 354.881 67.17 355.079 65.651 354.064 65.188C 353.466 64.916 352.402 64.955 352.095 65.262M361.583 65.368C 359.814 65.988 360.36 67.671 362.249 67.421C 363.238 67.29 363.667 66.954 363.667 66.308C 363.667 65.352 362.775 64.95 361.583 65.368M356.531 65.84C 356.085 66.256 356.056 67.015 356.471 67.391C 356.962 67.834 358.574 67.772 358.907 67.296C 359.547 66.383 358.936 65.5 357.667 65.5C 357.122 65.5 356.789 65.599 356.531 65.84" stroke="none" fill="#3414C4" fill-rule="nonzero" />
</g>
</svg>